<svg xmlns="http://www.w3.org/2000/svg" viewBox="0 0 261.681 108.301"><path fill="#575756" d="M156.691 56.258v4.35h-26.794v-4.35h10.763v-2.474a7.7 7.7 0 0 1-.87-.32 8.375 8.375 0 0 1-2.7-1.651 7.779 7.779 0 0 1-1.878-2.472 6.87 6.87 0 0 1-.687-3.024 6.684 6.684 0 0 1 .733-3.023 7.846 7.846 0 0 1 1.421-2.108h-6.048v-4.3h9.619v-3.942h5.635v3.938h9.573v4.3h-6a9.894 9.894 0 0 1 1.51 2.108 7.435 7.435 0 0 1 .642 3.023 6.869 6.869 0 0 1-.687 3.028 8.1 8.1 0 0 1-1.833 2.472 8.959 8.959 0 0 1-2.747 1.651 7.646 7.646 0 0 1-.871.32v2.474Zm-19.237 7.191v6.137h28.26v4.263h-33.345v-10.4Zm9.569-17.222a3.809 3.809 0 0 0-1.167-2.748 3.815 3.815 0 0 0-5.542 0 3.806 3.806 0 0 0-1.168 2.748 3.7 3.7 0 0 0 1.168 2.746 3.926 3.926 0 0 0 5.542 0 3.707 3.707 0 0 0 1.167-2.746Zm17.588-.826h5.222v4.811h-5.222v11.771h-5.084v-28.17h5.084ZM196.678 54.149h-5.085V39.218h-14.977v-4.536h20.062Zm13.512 11.819a9.043 9.043 0 0 1-.847 3.871 10.75 10.75 0 0 1-2.268 3.183 11.164 11.164 0 0 1-3.412 2.174 10.681 10.681 0 0 1-4.1.8 10.852 10.852 0 0 1-4.122-.8 11.078 11.078 0 0 1-3.436-2.174 11.2 11.2 0 0 1-2.222-3.183 9.281 9.281 0 0 1 0-7.743 10.1 10.1 0 0 1 5.658-5.359 10.85 10.85 0 0 1 4.122-.8 10.679 10.679 0 0 1 4.1.8 11.137 11.137 0 0 1 3.412 2.178 10.664 10.664 0 0 1 2.268 3.181 9.054 9.054 0 0 1 .847 3.872Zm-4.993-.045a5.305 5.305 0 0 0-1.694-3.94 5.532 5.532 0 0 0-3.985-1.65 5.45 5.45 0 0 0-3.962 1.65 5.5 5.5 0 0 0 0 7.9 5.493 5.493 0 0 0 3.967 1.626 5.577 5.577 0 0 0 3.985-1.625 5.288 5.288 0 0 0 1.689-3.961Zm1.7-32.11h5.083v21.436h-5.087v-4.535h-6.688v-4.213h6.688v-3.9h-6.688V38.44h6.688ZM224.123 59.618h37.558v4.488h-16.258v10.535h-5.084V64.106h-16.216Zm8.016-19.969h21.484v-5.178h5.037v19.651h-31.514V34.471h4.993Zm21.484 4.4h-21.484v5.634h21.484Z"/><path fill="#fff" d="M108.302 54.149A54.151 54.151 0 1 1 54.157 0a54.146 54.146 0 0 1 54.145 54.149"/><path fill="#003763" d="M79.611 50.377c-8.609-5.857-19.635-3.465-25.426 5.334a17.888 17.888 0 0 1-32.34-4.919h-.006c-.021-.065-.028-.118-.057-.188a1.362 1.362 0 0 0-.056-.227 22.867 22.867 0 0 1-.916-7.107c0-16.032 16.448-33.886 40.145-33.886 24.261 0 38.146 18.47 41.72 28.737a6.945 6.945 0 0 0-.179-.548A51.091 51.091 0 0 0 3.078 54.154c0 25.222 18.181 46.809 43.419 46.809 20.121 0 33.651-11.283 39.853-26.836 3.4-8.5.995-18.494-6.739-23.75"/><path fill="#e4022d" d="M102.995 39.122C100.012 29.109 86.023 9.384 60.95 9.384c-23.7 0-40.144 17.854-40.144 33.882a22.848 22.848 0 0 0 .917 7.111 15.013 15.013 0 0 1-.474-3.638c0-16.7 16.722-28.271 33.91-28.271a42.121 42.121 0 0 1 42.129 42.124 46.45 46.45 0 0 1-25.747 41.6v.015a51.119 51.119 0 0 0 33.7-48.057 50.461 50.461 0 0 0-2.249-15.032"/></svg>